<?xml version="1.0" encoding="UTF-8" standalone="no"?>
<svg
   xmlns:dc="http://purl.org/dc/elements/1.1/"
   xmlns:cc="http://creativecommons.org/ns#"
   xmlns:rdf="http://www.w3.org/1999/02/22-rdf-syntax-ns#"
   xmlns:svg="http://www.w3.org/2000/svg"
   xmlns="http://www.w3.org/2000/svg"
   version="1.1"
   id="svg885"
   xml:space="preserve"
   width="106.66667"
   height="106.66667"
   viewBox="0 0 106.66667 106.66667"><metadata
     id="metadata891"><rdf:RDF><cc:Work
         rdf:about=""><dc:format>image/svg+xml</dc:format><dc:type
           rdf:resource="http://purl.org/dc/dcmitype/StillImage" /><dc:title></dc:title></cc:Work></rdf:RDF></metadata><defs
     id="defs889"><clipPath
       clipPathUnits="userSpaceOnUse"
       id="clipPath901"><path
         d="M 0,80 H 80 V 0 H 0 Z"
         id="path899" /></clipPath><linearGradient
       x1="0"
       y1="0"
       x2="1"
       y2="0"
       gradientUnits="userSpaceOnUse"
       gradientTransform="matrix(-62.237305,0,0,-62.237305,68.830078,30.49707)"
       spreadMethod="pad"
       id="linearGradient929"><stop
         style="stop-opacity:1;stop-color:#ffffff"
         offset="0"
         id="stop923" /><stop
         style="stop-opacity:1;stop-color:#0a79bc"
         offset="0.638614"
         id="stop925" /><stop
         style="stop-opacity:1;stop-color:#0a79bc"
         offset="1"
         id="stop927" /></linearGradient><clipPath
       clipPathUnits="userSpaceOnUse"
       id="clipPath939"><path
         d="M 0,80 H 80 V 0 H 0 Z"
         id="path937" /></clipPath><linearGradient
       x1="0"
       y1="0"
       x2="1"
       y2="0"
       gradientUnits="userSpaceOnUse"
       gradientTransform="matrix(50.249363,-0.5033342,-0.5033342,-50.249363,30.145508,66.676758)"
       spreadMethod="pad"
       id="linearGradient963"><stop
         style="stop-opacity:1;stop-color:#0a79bc"
         offset="0"
         id="stop957" /><stop
         style="stop-opacity:1;stop-color:#0a79bc"
         offset="0.440594"
         id="stop959" /><stop
         style="stop-opacity:1;stop-color:#ffffff"
         offset="1"
         id="stop961" /></linearGradient><clipPath
       clipPathUnits="userSpaceOnUse"
       id="clipPath973"><path
         d="M 0,80 H 80 V 0 H 0 Z"
         id="path971" /></clipPath></defs><g
     id="g893"
     transform="matrix(1.3333333,0,0,-1.3333333,0,106.66667)"><g
       id="g895"><g
         id="g897"
         clip-path="url(#clipPath901)"><g
           id="g903"
           transform="translate(18.3428,39.334)"><path
             d="m 0,0 c 0,0 -1.777,-7.187 -3.235,-9.115 -0.948,-1.252 -3.635,-3.131 -5.123,-3.631 -0.634,-0.215 -2.766,0.4 -3.034,-0.211 -0.171,-3.561 -0.019,-11.381 -4.406,-16.738 -0.041,-0.412 0.416,-1.68 0.616,-2.086 2.455,4.99 4.462,10.66 6.429,14.24 2.32,1.918 5.143,3.416 6.177,5.137 C -0.945,-9.689 0,0 0,0"
             style="fill:#08557c;fill-opacity:1;fill-rule:nonzero;stroke:none"
             id="path905" /></g><g
           id="g907"
           transform="translate(49.8301,34.3359)"><path
             d="M 0,0 C 0,0 5.267,-0.945 6.712,-2.027 5.576,-3.838 2.996,-7.059 2.996,-7.059 l -1.752,0.715 -0.801,-1.115 2.913,-0.937 6.008,7.689 z"
             style="fill:#08557c;fill-opacity:1;fill-rule:nonzero;stroke:none"
             id="path909" /></g></g></g><g
       id="g911"><g
         id="g913"><g
           id="g919"><g
             id="g921"><path
               d="m 60.576,55.473 -4.51,-3.985 -13.694,0.686 -8.824,-3.703 -15.333,-8.545 c 0,0 -0.356,-8.76 -1.58,-11.35 v 0 C 14.773,24.64 10.768,22.615 10.768,22.615 v 0 c 0,0 -1.862,-10.05 -4.176,-15.708 v 0 C 6.6,6.348 7.222,4.762 7.222,4.762 v 0 c 0,0 2.71,9.247 5.031,12.992 v 0 c 2.576,4.152 5.14,5.646 6.984,6.09 v 0 c 0.527,0.125 2.847,0.146 3.607,0.662 v 0 c 1.34,0.91 1.714,3.758 2.617,5.141 v 0 c 1.391,2.128 7.898,4.814 10.7,5.293 v 0 c 2.383,0.406 7.245,0.843 9.653,0.601 v 0 c 1.899,-0.189 7.461,-1.26 7.461,-1.26 v 0 l 5.919,-0.653 c 0,0 -4.48,-6.007 -6.473,-7.464 v 0 c -0.274,-0.201 -1.249,-0.539 -1.249,-0.539 v 0 l -2.298,0.211 -1.086,-2.109 c 0,0 2.694,-0.451 3.384,-0.284 v 0 c 2.118,0.664 8.125,6.82 11.1,10.993 v 0 c -1.382,1.839 -7.413,1.996 -9.317,3.316 v 0 c -1.783,1.238 -1.123,4.403 0,6.281 v 0 c 0.845,1.417 3.462,3.255 5.213,3.471 v 0 c 1.324,0.163 5.627,-1.279 5.627,-1.279 v 0 l 4.735,1.664 -6.516,8.344 z"
               style="fill:url(#linearGradient929);stroke:none"
               id="path931" /></g></g></g></g><g
       id="g933"><g
         id="g935"
         clip-path="url(#clipPath939)"><g
           id="g941"
           transform="translate(3.0937,9.8008)"><path
             d="m 0,0 c 0.317,0.445 0.646,0.877 0.879,1.375 1.212,2.592 2.585,4.955 2.867,7.879 0.131,1.365 0.116,2.748 0.275,4.109 0.149,1.287 -0.473,2.809 1.222,2.977 2.089,0.207 4.274,1.662 5.812,3.004 1.428,1.244 2.315,2.806 2.884,4.508 C 13.47,21.639 12.789,19.547 11.604,17.416 10.723,15.832 9.334,13.623 7.487,13.068 7.446,13.063 7.407,13.049 7.367,13.027 7.322,13.016 7.281,12.992 7.235,12.982 7.093,12.953 6.978,12.799 6.978,12.652 5.562,11.221 4.821,9.322 4.031,7.459 2.948,4.904 1.906,2.334 0.633,-0.133 0.384,-0.615 0.338,-1.184 0.184,-1.707 0.128,-1.346 -0.218,-0.305 0,0 m 50.84,23.842 c 1.638,0.111 3.134,0.094 4.714,-0.182 -1.39,-1.988 -3.69,-5.767 -6.111,-6.984 -0.666,0.201 -1.315,0.414 -1.995,0.523 0.18,0.272 0.346,0.551 0.501,0.836 0.489,-0.23 0.967,-0.476 1.433,-0.758 0.135,-0.08 0.302,-0.048 0.413,0.055 1.616,1.504 2.746,3.322 3.951,5.154 0.075,0.116 -0.006,0.241 -0.115,0.285 -0.928,0.372 -1.854,0.741 -2.791,1.071 m -3.868,-7.346 c 0.532,-0.027 1.051,-0.064 1.566,-0.144 -0.523,-0.11 -1.049,-0.077 -1.566,0.144 M -0.186,-2.957 c 0.06,-0.223 0.398,-0.229 0.454,0 0.684,2.766 2.299,5.471 3.391,8.119 0.917,2.225 1.788,4.455 3.322,6.285 C 6.889,8.037 5.609,4.307 4.503,1.203 4.036,-0.107 2.866,-1.627 2.998,-3.084 c 0.109,-1.207 0.477,-2.352 0.674,-3.547 0.076,-0.461 0.873,-0.471 0.939,0 0.56,4.002 1.326,8.623 3.328,12.192 1.579,2.81 4.077,7.156 7.641,7.677 1.147,0.168 2.832,-0.384 3.816,0.483 1.191,1.049 1.907,2.365 2.515,3.82 0.305,0.727 0.614,1.504 0.947,2.293 0.123,-0.014 0.258,0.016 0.391,0.119 2.759,2.145 6.358,4.092 9.805,4.774 3.072,0.607 6.308,0.117 9.331,0.72 1.028,-0.371 2.071,-0.648 3,-0.853 1.346,-0.297 2.831,-0.686 4.263,-0.762 0.457,-0.135 0.913,-0.275 1.368,-0.424 0.684,-0.222 1.33,-0.474 1.988,-0.773 0.472,-0.215 -0.418,-1.172 -0.522,-1.324 -0.793,-1.157 -1.584,-2.301 -2.738,-3.129 -0.398,-0.287 -1.396,0.459 -1.845,0.632 -0.19,0.075 -0.357,-0.08 -0.422,-0.238 -0.078,-0.185 -0.794,-1.156 -1.026,-1.494 -0.061,-0.09 -0.059,-0.184 -0.035,-0.271 -0.027,0.019 -0.056,0.033 -0.083,0.054 -0.242,0.182 -0.677,0.055 -0.805,-0.211 -0.417,-0.871 -0.895,-1.679 -1.441,-2.476 -0.217,-0.317 0.072,-0.75 0.43,-0.748 1.434,0.008 2.912,-0.604 4.281,-0.047 1.256,0.508 2.496,1.75 3.426,2.693 2.578,2.617 5.266,5.475 7.379,8.486 0.081,0.116 -0.07,0.247 -0.178,0.2 0.009,0.029 0.014,0.062 -0.011,0.088 -1.305,1.351 -2.795,2.019 -4.599,2.363 -3.269,0.623 -6.669,2.326 -4.572,6.241 0.801,1.494 2.031,3.332 3.821,3.723 2.499,0.546 3.895,0.122 6.068,-1.15 1.417,-0.83 4.179,1.266 5.634,1.491 0.254,0.039 0.402,0.414 0.252,0.619 -2.115,2.877 -4.622,5.447 -6.76,8.317 -0.032,0.045 -0.101,0.007 -0.074,-0.043 1.558,-2.914 3.73,-5.612 5.754,-8.243 -1.754,-0.535 -3.615,-1.712 -5.417,-1.038 -1.332,0.499 -3.353,0.905 -4.77,0.683 -2.672,-0.42 -5.127,-2.511 -5.897,-5.174 -0.644,-2.221 -0.111,-4.563 2.259,-5.457 1.486,-0.559 3.044,-0.67 4.581,-1.004 1.286,-0.28 2.368,-1.129 3.633,-1.479 0.012,-0.002 0.016,0.01 0.026,0.012 -1.9,-2.447 -4.13,-4.809 -6.277,-7.039 -1.15,-1.197 -3.617,-4.289 -5.559,-3.688 -0.702,0.219 -1.359,0.327 -2.047,0.385 0.301,0.41 0.579,0.842 0.834,1.289 4.436,-1.342 8.066,5.205 10.354,8.002 0.203,0.248 0.157,0.666 -0.199,0.754 -3.137,0.77 -6.314,-0.039 -9.511,0.668 -3.437,0.762 -6.793,1.434 -9.16,4.252 -0.155,0.186 -0.419,-0.051 -0.319,-0.246 0.777,-1.518 2.308,-2.543 3.985,-3.27 -1.194,0.094 -2.46,0.026 -3.605,0.024 -1.881,-0.004 -3.811,-0.155 -5.642,-0.619 -3.104,-0.791 -6,-2.202 -8.693,-3.918 1.071,2.265 2.447,4.416 4.613,5.5 0.145,0.074 0.018,0.283 -0.127,0.216 -3.048,-1.388 -4.843,-4.962 -6.274,-7.814 -0.55,-1.094 -1.074,-2.256 -1.781,-3.262 C 18.96,14.543 18.158,14.414 16.609,14.414 15.569,14.412 14.448,14.295 13.608,13.605 10.799,11.301 8.926,8.363 7.513,5.035 6.225,2 4.902,-1.082 4.109,-4.295 4.02,-3.871 3.964,-3.457 3.998,-3.084 4.111,-1.842 4.532,-0.809 4.956,0.338 5.66,2.24 6.239,4.191 6.688,6.17 c 0.097,0.42 1.021,6.068 1.056,6.098 0.001,0 0.002,0.002 0.003,0.002 0.719,-0.012 1.57,0.642 2.066,1.074 1.935,1.687 3.515,4.201 4.391,6.59 0.678,1.851 1.15,3.775 1.339,5.742 0.127,1.314 -0.595,4.289 0.759,5.054 3.107,1.755 6.553,2.847 9.609,4.69 3.502,2.114 7.284,3.946 11.17,5.231 2.02,0.67 4.073,1.307 6.226,1.039 1.884,-0.234 3.752,-0.506 5.658,-0.451 1.956,0.055 3.601,-0.172 5.226,0.972 1.319,0.928 2.551,1.918 3.667,3.086 0.473,0.495 -0.273,1.245 -0.752,0.751 C 55.892,44.795 54.531,43.668 53.03,42.77 51.685,41.963 48.687,42.293 47.168,42.418 44.714,42.62 42.237,43.262 39.793,42.64 34.15,41.203 29.413,38.356 24.366,35.608 21.804,34.211 19.052,33.14 16.557,31.624 16.146,31.375 14.91,30.917 14.77,30.406 14.649,29.969 14.62,29.453 14.606,28.932 14.236,26.541 13.847,23.832 12.63,21.826 10.935,19.033 7.046,17.035 3.857,16.871 3.705,16.863 3.55,16.742 3.562,16.576 3.855,12.424 3.43,7.729 1.601,3.926 1.15,2.988 0.77,2.127 0.125,1.289 -0.184,0.887 -0.756,0.414 -0.888,-0.068 c -0.192,-0.7 0.504,-2.157 0.702,-2.889"
             style="fill:#000000;fill-opacity:1;fill-rule:nonzero;stroke:none"
             id="path943" /></g></g></g><g
       id="g945"><g
         id="g947"><g
           id="g953"><g
             id="g955"><path
               d="m 43.08,77.085 -10e-4,0.002 C 35.464,76.325 29.513,70.946 29.513,66.041 v 0 c 0,-4.886 6.523,-9.491 13.287,-9.955 v 0 c 1.68,-0.113 7.197,0 7.197,0 v 0 l 5.381,8.598 3.31,-5.042 h -5.474 l 0.041,-1.206 6.166,-0.282 1.783,-2.341 0.836,0.549 -1.363,2.074 4.944,0.254 -0.166,4.25 c 1.167,-1.555 3.224,-3.799 4.69,-5.66 v 0 l 0.218,-0.278 0.335,0.114 c 4.343,1.461 6.913,5.995 6.503,9.148 v 0 c -0.673,5.186 -6.907,9.908 -13.08,9.908 v 0 c 0,0 -0.526,-0.152 -0.526,-0.486 v 0 c 0,-0.416 0.526,-0.513 0.526,-0.513 v 0 c 5.591,-0.778 11.178,-4.288 11.792,-9.017 v 0 c 0.349,-2.689 -1.49,-6.05 -5.175,-7.466 v 0 c -2.143,2.734 -5.349,6.486 -5.382,6.531 v 0 l -0.985,1.719 0.042,-7.298 -4.125,0.13 -5.018,7.168 -5.982,-9.42 c -0.914,-0.017 -3.919,-0.259 -5.714,-0.166 v 0 l 0.298,9.907 -1.746,0.396 v -9.801 c -4.963,0.513 -9.412,3.556 -10.097,7.063 v 0 l 6.031,1.065 0.325,0.761 -6.41,0.527 c 0.638,3.384 4.563,6.498 11.348,8.081 v 0 c 0,0 1.26,0.084 1.131,0.881 v 0 c -0.122,0.763 -0.809,0.864 -1.163,0.864 v 0 c -0.127,0 -0.211,-0.013 -0.211,-0.013"
               style="fill:url(#linearGradient963);stroke:none"
               id="path965" /></g></g></g></g><g
       id="g967"><g
         id="g969"
         clip-path="url(#clipPath973)"><g
           id="g975"
           transform="translate(61.9697,56.3384)"><path
             d="m 0,0 c -0.28,-0.066 -0.562,-0.244 -0.824,-0.4 -0.22,0.357 -0.44,0.712 -0.665,1.066 C -1.653,0.923 -1.802,1.215 -1.965,1.492 -1.6,1.5 -1.233,1.516 -0.869,1.531 -0.622,1.018 -0.365,0.432 0,0 M 11.663,15.871 C 11.641,15.887 11.615,15.853 11.635,15.834 15.261,12.412 16.545,7.643 12.767,3.746 11.595,2.537 9.229,0.043 7.836,1.712 6.437,3.388 5.065,5.094 3.568,6.684 3.554,6.699 3.537,6.699 3.521,6.705 3.512,6.733 3.509,6.766 3.499,6.795 3.47,6.881 3.322,6.901 3.304,6.795 3.072,5.496 3.356,4.019 3.558,2.693 H 3.557 C 0.974,2.223 -1.65,2.26 -4.266,2.176 -5.562,2.134 -8.69,1.408 -8.751,3.202 -5.117,3.108 -1.302,2.854 2.318,3.178 2.675,3.209 2.721,3.586 2.533,3.762 2.829,4.56 2.606,5.553 2.543,6.383 2.447,7.631 2.299,9.062 2.486,10.322 3.711,7.307 6.529,4.603 8.569,2.152 8.627,2.084 8.759,2.047 8.844,2.08 12.76,3.652 15.137,7.492 13.621,11.625 12.054,15.898 5.992,18.468 1.904,19.296 1.498,19.379 1.323,18.77 1.732,18.671 6.363,17.546 15.229,12.514 12.73,6.658 12.196,5.404 11.196,4.396 10.199,3.501 8.685,2.141 8.063,3.591 7.113,4.73 5.543,6.615 4.231,8.782 2.511,10.531 2.513,10.544 2.513,10.558 2.515,10.57 2.542,10.717 2.331,10.779 2.288,10.633 1.91,9.324 1.805,8.248 1.888,6.875 1.943,5.954 1.861,4.742 2.218,3.844 0.968,3.643 -0.258,3.549 -1.478,3.504 c -0.004,0.016 0.003,0.031 -0.004,0.047 -1.368,2.604 -3.125,4.998 -4.674,7.49 -0.197,0.315 -0.598,0.279 -0.801,0 -1.241,-1.709 -2.318,-3.518 -3.424,-5.314 -0.877,-1.426 -1.938,-2.899 -2.434,-4.511 -1.224,0.454 -2.765,0.208 -4.046,0.212 -0.25,-0.002 -0.501,-0.006 -0.751,-0.015 -0.7,-0.019 -0.132,-0.095 -0.168,0.321 -0.127,1.441 -0.074,2.922 -0.127,4.37 -0.051,1.382 0.985,6.02 -1.681,5.404 -0.296,-0.069 -0.236,-0.576 0.072,-0.537 1.741,0.224 1.184,-3.172 1.162,-4.185 -0.042,-1.916 0.032,-3.86 -0.124,-5.768 -0.017,-0.216 0.187,-0.369 0.38,-0.38 1.631,-0.101 3.91,-0.412 5.421,0.227 0.066,0.029 0.09,0.106 0.081,0.177 1.227,1.183 2.05,2.821 2.949,4.256 1.006,1.606 2.082,3.169 3.135,4.745 C -4.766,7.995 -3.641,5.6 -2.005,3.484 -2.382,3.475 -2.759,3.475 -3.136,3.473 c -0.971,1.632 -2.108,3.154 -2.936,4.873 -0.113,0.232 -0.425,0.177 -0.551,0 -0.956,-1.363 -1.803,-2.817 -2.705,-4.217 -0.816,-1.266 -1.835,-2.559 -2.363,-3.991 -0.074,0.024 -0.154,0.037 -0.245,0.022 -6.3,-1.033 -16.091,0.182 -19.449,6.439 -1.94,3.615 0.257,7.411 3.023,9.77 2.665,2.274 5.641,3.307 8.951,4.213 0.027,0.008 0.047,0.025 0.058,0.047 0.475,0.109 0.938,0.062 1.368,-0.184 0.626,-0.36 0.372,-0.966 -0.108,-1.31 -0.007,0.002 -0.009,0.01 -0.016,0.008 -5.104,-0.952 -10.357,-2.866 -12.229,-8.114 -0.084,-0.238 0.131,-0.429 0.344,-0.451 1.991,-0.209 4.011,-0.352 6.012,-0.48 0.015,-0.01 0.032,-0.013 0.047,-0.024 0.546,-0.37 -2.127,-0.75 -2.136,-0.752 -1.292,-0.146 -2.575,-0.354 -3.869,-0.472 -0.219,-0.02 -0.316,-0.21 -0.234,-0.407 1.672,-3.953 5.502,-7.306 10.055,-7.355 0.119,-0.001 0.207,0.04 0.275,0.099 0.203,-0.04 0.442,0.067 0.434,0.331 -0.049,1.632 -0.172,3.267 -0.261,4.9 -0.09,1.628 0.127,3.295 -0.15,4.906 -0.004,0.023 -0.041,0.023 -0.045,0 -0.235,-1.392 -0.099,-2.855 -0.074,-4.262 0.03,-1.707 -0.104,-3.414 -0.164,-5.119 -0.006,0 -0.009,0.004 -0.015,0.004 -2.682,0.215 -5.103,1.237 -7.211,2.875 -1.09,0.846 -1.712,1.881 -2.183,3.166 -0.204,0.561 0.62,0.268 1.069,0.256 0.641,-0.016 1.252,-0.017 1.893,0.033 1.02,0.08 3.37,0.268 3.717,1.528 0.231,0.841 -1.102,0.872 -2.001,0.849 -1.435,0.151 -2.877,0.24 -4.295,0.514 -1.101,0.214 2.74,3.893 3.109,4.148 2.436,1.679 5.502,2.089 7.945,3.748 0.011,0.007 0.007,0.018 0.009,0.029 0.435,0.239 0.876,0.712 0.488,1.208 -0.427,0.543 -1.16,0.631 -1.794,0.467 -0.018,0.013 -0.038,0.023 -0.066,0.021 -6.463,-0.494 -15.167,-6.006 -12.994,-13.437 2.273,-7.771 14.167,-9.327 20.755,-8.126 0.422,0.077 0.425,0.526 0.195,0.774 0.915,0.994 1.617,2.217 2.378,3.319 0.955,1.385 1.997,2.773 2.792,4.264 0.957,-1.335 1.75,-2.776 2.698,-4.115 C -5.314,3.471 -7.018,3.523 -8.766,3.5 -8.87,3.498 -8.912,3.414 -8.903,3.334 -8.916,3.324 -8.93,3.313 -8.935,3.291 -9.376,1.519 -8.228,1.635 -6.521,1.553 c 1.24,-0.061 2.505,-0.079 3.775,-0.069 0.148,-0.358 0.415,-0.706 0.607,-1.015 0.303,-0.487 0.627,-0.96 0.939,-1.442 0.096,-0.148 0.269,-0.193 0.426,-0.111 0.407,0.21 1.034,0.414 1.181,0.887 C 0.439,-0.094 0.36,-0.004 0.263,0.017 0.105,0.555 -0.286,1.084 -0.658,1.539 0.831,1.611 2.311,1.754 3.746,2.008 4.134,2.077 4.045,2.594 3.727,2.685 3.852,3.82 3.885,5.133 3.627,6.262 5.374,4.326 6.896,2.252 8.398,0.119 8.485,-0.004 8.659,-0.081 8.8,0.014 c 2.87,1.941 5.827,3.766 6.813,7.291 0.986,3.517 -1.14,6.674 -3.95,8.566"
             style="fill:#000507;fill-opacity:1;fill-rule:nonzero;stroke:none"
             id="path977" /></g></g></g></g></svg>
